<svg width="38" height="44" viewBox="0 0 38 44" fill="none" xmlns="http://www.w3.org/2000/svg">
<path d="M37.8861 16.4953C36.9429 7.95461 29.9241 1.06966 21.1808 0.118896C9.71183 -1.12851 0 7.60484 0 18.5527C0 24.1545 2.54655 29.173 6.56709 32.5749L17.7417 43.4865C18.4429 44.1712 19.5792 44.1712 20.2806 43.4865L31.5997 32.4339C32.1704 31.9396 32.7099 31.4131 33.2158 30.856L33.3063 30.7679L33.2997 30.7612C36.6478 27.0252 38.4909 21.9705 37.8861 16.4953Z" fill="black"/>
<path d="M19.4186 5.38112C25.1997 5.60702 29.6986 10.366 29.467 16.011C29.3763 18.232 28.5643 20.2574 27.2632 21.8856L27.5998 23.7119L28.2061 27.0068L25.0459 25.709L23.2274 24.9621C21.8106 25.5735 20.2334 25.8875 18.5812 25.823C12.8002 25.5973 8.30146 20.8381 8.5328 15.1931C8.76389 9.54833 13.6378 5.15522 19.4186 5.38112Z" fill="white"/>
<path d="M19.0395 9.38022C15.6588 9.38022 12.9181 12.0563 12.9181 15.3576C12.9181 16.6564 13.3439 17.8574 14.0644 18.8379L13.8244 19.8964L13.3914 21.8064L15.2678 21.1208L16.3473 20.7263C17.1598 21.1153 18.0732 21.3347 19.0395 21.3347C22.4202 21.3347 25.1609 18.6587 25.1609 15.3576C25.1609 12.0563 22.4202 9.38022 19.0395 9.38022Z" fill="black"/>
</svg>
