<svg width="100" height="119" viewBox="0 0 100 119" fill="none" xmlns="http://www.w3.org/2000/svg">
<path d="M99.7002 44.4548C97.2182 21.4375 78.7476 2.8826 55.7391 0.320297C25.5574 -3.04147 0 20.4949 0 49.9995C0 65.0963 6.70145 78.621 17.2818 87.7891L46.6887 117.196C48.5338 119.041 51.5243 119.041 53.3701 117.196L83.157 87.4091C84.6589 86.0771 86.0786 84.6581 87.4099 83.1569L87.648 82.9194L87.6307 82.9013C96.4415 72.8327 101.292 59.2104 99.7002 44.4548Z" fill="white"/>
<path d="M51.1018 14.5019C66.315 15.1107 78.1544 27.9363 77.545 43.1495C77.3061 49.1351 75.1693 54.5935 71.7453 58.9816L72.6311 63.9035L74.2267 72.7832L65.9103 69.2856L61.1248 67.2726C57.3965 68.9204 53.2459 69.7666 48.8981 69.5927C33.6848 68.9846 21.846 56.1584 22.4548 40.9451C23.063 25.7325 35.8892 13.8931 51.1018 14.5019Z" fill="#154B82"/>
</svg>
