<svg width="142" height="167" viewBox="0 0 142 167" fill="none" xmlns="http://www.w3.org/2000/svg">
<path d="M76.9269 162.442L76.9266 162.442C73.6732 165.679 68.4048 165.679 65.1519 162.442L25.7969 123.268C11.2314 110.678 2 92.1155 2 71.3957C2 30.8525 37.2802 -1.4711 78.9107 3.14453C110.669 6.66493 136.159 32.1464 139.587 63.7846C141.709 83.3718 135.524 101.517 124.128 115.198L124.259 115.334L122.857 116.725L122.581 116.998C120.769 119.029 118.839 120.949 116.799 122.753L76.9269 162.442Z" fill="#D61D1D" stroke="white" stroke-width="4"/>
<path d="M109.909 62.3388C109.584 70.4339 106.779 77.8462 102.264 83.8895L103.294 89.5851L103.294 89.5856L105.432 101.43L106.086 105.051L102.691 103.63L91.5475 98.9646L91.5473 98.9646L85.9145 96.606C80.8556 98.6985 75.2732 99.7599 69.4438 99.5278C47.9627 98.673 31.2306 80.6425 32.0911 59.2381C32.9507 37.8352 51.0764 21.1938 72.556 22.0495C94.0368 22.9051 110.77 40.9344 109.909 62.3388ZM109.909 62.3388L107.91 62.2587M109.909 62.3388C109.909 62.339 109.909 62.3391 109.909 62.3392L107.91 62.2587M107.91 62.2587C107.59 70.2425 104.727 77.5231 100.139 83.376L85.9073 94.4347C80.9113 96.6325 75.3496 97.7614 69.5234 97.5293C49.1377 96.7182 33.2737 79.6103 34.0895 59.3185C34.9044 39.0276 52.0915 23.2358 72.4764 24.0479C92.8621 24.8599 108.727 41.9669 107.91 62.2587Z" fill="white" stroke="white" stroke-width="4"/>
<path d="M50.797 75.7913L50.797 75.7912L51.4536 72.839C48.9931 69.1316 47.5534 64.6879 47.5534 59.9099C47.5534 46.9293 58.1225 36.4232 71.1395 36.4232C84.1566 36.4232 94.7256 46.9293 94.7256 59.9099C94.7256 72.8896 84.1565 83.3956 71.1395 83.3956C67.7306 83.3956 64.4889 82.6718 61.5608 81.3745L58.5376 82.5006L58.5376 82.5006L51.9207 84.9653L48.4713 86.2501L49.2703 82.6569L50.797 75.7913Z" fill="#154B82" stroke="white" stroke-width="4"/>
</svg>
