<svg width="59" height="59" viewBox="0 0 59 59" fill="none" xmlns="http://www.w3.org/2000/svg">
<path d="M29.5 31.3438C33.5071 31.3438 37.0471 32.3025 39.9233 33.5562C42.5783 34.7362 44.25 37.3912 44.25 40.2675V44.25H14.75V40.2921C14.75 37.3912 16.4217 34.7362 19.0767 33.5808C21.9529 32.3025 25.4929 31.3438 29.5 31.3438ZM9.83333 31.9583C12.5375 31.9583 14.75 29.7458 14.75 27.0417C14.75 24.3375 12.5375 22.125 9.83333 22.125C7.12917 22.125 4.91667 24.3375 4.91667 27.0417C4.91667 29.7458 7.12917 31.9583 9.83333 31.9583ZM12.6112 34.6625C11.7017 34.515 10.7921 34.4167 9.83333 34.4167C7.39958 34.4167 5.08875 34.9329 2.99917 35.8425C1.18 36.6292 0 38.3992 0 40.3904V44.25H11.0625V40.2921C11.0625 38.2517 11.6279 36.3342 12.6112 34.6625ZM49.1667 31.9583C51.8708 31.9583 54.0833 29.7458 54.0833 27.0417C54.0833 24.3375 51.8708 22.125 49.1667 22.125C46.4625 22.125 44.25 24.3375 44.25 27.0417C44.25 29.7458 46.4625 31.9583 49.1667 31.9583ZM59 40.3904C59 38.3992 57.82 36.6292 56.0008 35.8425C53.9113 34.9329 51.6004 34.4167 49.1667 34.4167C48.2079 34.4167 47.2983 34.515 46.3888 34.6625C47.3721 36.3342 47.9375 38.2517 47.9375 40.2921V44.25H59V40.3904ZM29.5 14.75C33.5808 14.75 36.875 18.0442 36.875 22.125C36.875 26.2058 33.5808 29.5 29.5 29.5C25.4192 29.5 22.125 26.2058 22.125 22.125C22.125 18.0442 25.4192 14.75 29.5 14.75Z" fill="#D61D1D"/>
</svg>
