<svg width="59" height="59" viewBox="0 0 59 59" fill="none" xmlns="http://www.w3.org/2000/svg">
<path d="M30.7292 16.9625C35.105 16.9625 36.7275 19.0521 36.875 22.125H42.3079C42.1358 17.8967 39.5546 14.0125 34.4167 12.7587V7.375H27.0417V12.685C25.7387 12.98 24.5096 13.4225 23.4033 14.0125L27.0171 17.6263C28.025 17.2083 29.2542 16.9625 30.7292 16.9625ZM13.1029 9.98083L9.98082 13.1029L18.4375 21.5596C18.4375 26.6729 22.2725 29.4508 28.0496 31.1717L36.6783 39.8004C35.8425 40.9804 34.0971 42.0375 30.7292 42.0375C25.665 42.0375 23.6737 39.7758 23.4033 36.875H17.995C18.29 42.2588 22.3217 45.2825 27.0417 46.2904V51.625H34.4167V46.3396C36.7767 45.8971 38.8908 44.9875 40.4396 43.5862L45.8971 49.0438L49.0192 45.9217L13.1029 9.98083Z" fill="#D61D1D"/>
</svg>
