<svg width="59" height="59" viewBox="0 0 59 59" fill="none" xmlns="http://www.w3.org/2000/svg">
<path d="M4.91667 46.7083H9.83334C9.83334 41.2775 14.2359 36.875 19.6667 36.875C25.0975 36.875 29.5 41.2775 29.5 46.7083H34.4167C34.4167 38.5621 27.8129 31.9583 19.6667 31.9583C11.5205 31.9583 4.91667 38.5621 4.91667 46.7083Z" fill="#D61D1D"/>
<path d="M9.83334 19.6667C9.83334 14.2359 14.2359 9.83334 19.6667 9.83334C25.0975 9.83334 29.5 14.2359 29.5 19.6667C29.4932 25.0947 25.0947 29.4932 19.6667 29.5C14.2359 29.5 9.83334 25.0975 9.83334 19.6667ZM14.7555 19.5962C14.717 22.2819 16.841 24.5015 19.5258 24.5812C22.2106 24.6609 24.4625 22.5712 24.5833 19.8879V19.6667C24.5833 16.9513 22.3821 14.75 19.6667 14.75C16.9807 14.7527 14.794 16.9105 14.7555 19.5962Z" fill="#D61D1D"/>
<path d="M45.0834 36.8736C44.572 36.4188 43.9943 35.9443 43.3822 35.4428L43.2667 35.3494L43.253 35.3383C40.411 33.0195 36.875 30.1345 36.875 26.5486C36.8754 25.3586 37.355 24.219 38.2056 23.3869C39.0563 22.5547 40.2062 22.1003 41.3959 22.126C42.8025 22.1223 44.144 22.7188 45.0834 23.7658C46.023 22.719 47.3643 22.1226 48.7709 22.126C49.9593 22.1029 51.107 22.5589 51.9556 23.3913C52.8041 24.2237 53.2821 25.3624 53.2819 26.5511C53.2819 30.1519 49.7186 33.0582 46.8534 35.395L46.846 35.401L46.7059 35.5166L46.6612 35.5532C46.0951 36.0165 45.56 36.4545 45.0809 36.8785L45.0834 36.8736Z" fill="#D61D1D"/>
</svg>
