<svg width="573" height="680" viewBox="0 0 573 680" fill="none" xmlns="http://www.w3.org/2000/svg">
<path d="M571.168 254.675C556.949 122.813 451.133 16.5146 319.321 1.83563C146.415 -17.4234 0 117.413 0 286.44C0 372.928 38.3916 450.409 99.0049 502.931L267.473 671.399C278.043 681.97 295.175 681.97 305.749 671.399L476.394 500.754C484.999 493.124 493.131 484.995 500.758 476.394L502.123 475.034L502.023 474.93C552.499 417.249 580.286 339.208 571.168 254.675Z" fill="#D61D1D"/>
<path d="M292.755 83.0787C379.909 86.5664 447.735 160.042 444.244 247.196C442.876 281.487 430.634 312.758 411.019 337.896L416.093 366.093L425.234 416.964L377.59 396.927L350.175 385.394C328.816 394.834 305.038 399.682 280.13 398.686C192.975 395.202 125.153 321.722 128.641 234.568C132.124 147.417 205.604 79.5909 292.755 83.0787Z" fill="white"/>
<path d="M287.039 144.822C236.073 144.822 194.753 186.138 194.753 237.108C194.753 257.161 201.173 275.703 212.034 290.842L208.416 307.184L201.889 336.673L230.178 326.087L246.451 319.997C258.701 326.003 272.471 329.391 287.039 329.391C338.006 329.391 379.325 288.075 379.325 237.108C379.325 186.138 338.006 144.822 287.039 144.822Z" fill="#154B82"/>
</svg>
