<svg width="212" height="129" viewBox="0 0 212 129" fill="none" xmlns="http://www.w3.org/2000/svg">
<rect width="212" height="129" fill="#E5E5E5"/>
<rect width="1920" height="2925" transform="translate(-398 -1598)" fill="white"/>
<rect width="1920" height="798" transform="translate(-398 -128)" fill="white"/>
<mask id="mask0" style="mask-type:alpha" maskUnits="userSpaceOnUse" x="-10" y="-23" width="290" height="152">
<path d="M87.7354 20.9505C28.9711 -2.87302 2.75935 2.7946 -8.93132 20.9505L-10 129H280V-23C241.843 -4.75824 144.617 44.0106 87.7354 20.9505Z" fill="#D61D1D"/>
</mask>
<g mask="url(#mask0)">
<rect width="212" height="130" fill="#D61D1D"/>
<path d="M72.664 122H69.568V115.088H63.136V122H60.04V105.68L63.136 105.56V112.592H69.568V105.68H72.664V122ZM81.5269 122.288C80.2789 122.288 79.1829 122.04 78.2389 121.544C77.3109 121.048 76.5909 120.344 76.0789 119.432C75.5669 118.504 75.3109 117.424 75.3109 116.192C75.3109 114.944 75.5669 113.864 76.0789 112.952C76.5909 112.024 77.3109 111.312 78.2389 110.816C79.1829 110.304 80.2789 110.048 81.5269 110.048C82.7909 110.048 83.8869 110.296 84.8149 110.792C85.7429 111.288 86.4629 111.992 86.9749 112.904C87.4869 113.816 87.7429 114.896 87.7429 116.144C87.7429 117.376 87.4869 118.456 86.9749 119.384C86.4629 120.312 85.7429 121.032 84.8149 121.544C83.8869 122.04 82.7909 122.288 81.5269 122.288ZM81.5269 119.624C82.4069 119.624 83.1269 119.296 83.6869 118.64C84.2469 117.968 84.5269 117.136 84.5269 116.144C84.5269 115.136 84.2469 114.312 83.6869 113.672C83.1269 113.032 82.4069 112.712 81.5269 112.712C80.6469 112.712 79.9269 113.048 79.3669 113.72C78.8069 114.376 78.5269 115.2 78.5269 116.192C78.5269 117.2 78.8069 118.024 79.3669 118.664C79.9269 119.304 80.6469 119.624 81.5269 119.624ZM101.6 122H98.9836L96.7996 114.872L94.7116 122H92.0716L88.5916 110.84L91.6636 109.928L93.4636 117.128L95.1436 110.36H98.5756L100.376 117.128L102.032 110.36H105.32L101.6 122ZM116.081 122H112.985V105.68H116.081V122ZM125.125 110.384L126.085 112.784H123.013V117.728C123.013 118.336 123.157 118.84 123.445 119.24C123.733 119.624 124.157 119.816 124.717 119.816C125.133 119.816 125.557 119.712 125.989 119.504L126.901 121.76C126.645 121.968 126.277 122.136 125.797 122.264C125.333 122.408 124.917 122.48 124.549 122.48C123.109 122.48 121.973 122.12 121.141 121.4C120.325 120.664 119.917 119.624 119.917 118.28V112.784H118.357V110.384H119.917V107.624L123.013 107.072V110.384H125.125ZM154.608 105.68L149.688 122H147.048L143.736 110.096L140.424 122H137.784L132.888 105.872L136.008 105.44L139.176 117.728L142.224 105.68H145.344L148.44 117.728L151.488 105.68H154.608ZM161.66 122.288C160.412 122.288 159.316 122.04 158.372 121.544C157.444 121.048 156.724 120.344 156.212 119.432C155.7 118.504 155.444 117.424 155.444 116.192C155.444 114.944 155.7 113.864 156.212 112.952C156.724 112.024 157.444 111.312 158.372 110.816C159.316 110.304 160.412 110.048 161.66 110.048C162.924 110.048 164.02 110.296 164.948 110.792C165.876 111.288 166.596 111.992 167.108 112.904C167.62 113.816 167.876 114.896 167.876 116.144C167.876 117.376 167.62 118.456 167.108 119.384C166.596 120.312 165.876 121.032 164.948 121.544C164.02 122.04 162.924 122.288 161.66 122.288ZM161.66 119.624C162.54 119.624 163.26 119.296 163.82 118.64C164.38 117.968 164.66 117.136 164.66 116.144C164.66 115.136 164.38 114.312 163.82 113.672C163.26 113.032 162.54 112.712 161.66 112.712C160.78 112.712 160.06 113.048 159.5 113.72C158.94 114.376 158.66 115.2 158.66 116.192C158.66 117.2 158.94 118.024 159.5 118.664C160.06 119.304 160.78 119.624 161.66 119.624ZM172.924 122H169.804V110.36H171.436L172.468 112.304C172.788 112.016 173.18 111.728 173.644 111.44C174.108 111.136 174.58 110.88 175.06 110.672C175.556 110.464 176.012 110.36 176.428 110.36L177.052 112.856C176.524 112.856 175.868 113.048 175.084 113.432C174.316 113.816 173.596 114.304 172.924 114.896V122ZM181.953 122H178.857V105.32L181.953 105.056V114.608L186.945 110.024L188.697 112.232L185.433 115.088L189.705 122H186.129L183.201 117.08L181.953 118.184V122ZM190.343 121.088L191.279 118.976C191.839 119.232 192.375 119.432 192.887 119.576C193.415 119.704 193.895 119.768 194.327 119.768C194.599 119.768 194.879 119.736 195.167 119.672C195.471 119.592 195.727 119.48 195.935 119.336C196.143 119.176 196.247 118.984 196.247 118.76C196.247 118.136 195.567 117.616 194.207 117.2C193.599 116.992 192.991 116.736 192.383 116.432C191.791 116.112 191.303 115.72 190.919 115.256C190.535 114.792 190.343 114.24 190.343 113.6C190.343 112.496 190.751 111.632 191.567 111.008C192.383 110.368 193.487 110.048 194.879 110.048C195.215 110.048 195.615 110.096 196.079 110.192C196.559 110.288 197.047 110.424 197.543 110.6C198.039 110.776 198.479 111 198.863 111.272L197.927 113.36C197.367 113.104 196.847 112.912 196.367 112.784C195.887 112.64 195.375 112.568 194.831 112.568C194.431 112.568 194.095 112.672 193.823 112.88C193.567 113.072 193.439 113.304 193.439 113.576C193.439 113.816 193.639 114.032 194.039 114.224C194.455 114.4 194.863 114.56 195.263 114.704C195.919 114.928 196.543 115.224 197.135 115.592C197.743 115.944 198.239 116.376 198.623 116.888C199.023 117.384 199.223 117.968 199.223 118.64C199.223 119.792 198.807 120.688 197.975 121.328C197.159 121.968 195.959 122.288 194.375 122.288C194.055 122.288 193.647 122.248 193.151 122.168C192.655 122.088 192.151 121.96 191.639 121.784C191.143 121.592 190.711 121.36 190.343 121.088ZM202.316 122C201.82 122 201.396 121.832 201.044 121.496C200.708 121.16 200.54 120.744 200.54 120.248C200.54 119.752 200.708 119.336 201.044 119C201.396 118.664 201.82 118.496 202.316 118.496C202.812 118.496 203.22 118.664 203.54 119C203.876 119.336 204.044 119.752 204.044 120.248C204.044 120.744 203.876 121.16 203.54 121.496C203.22 121.832 202.812 122 202.316 122Z" fill="white"/>
</g>
<path d="M82.8549 -280.836C73.3736 -368.762 2.81573 -439.642 -85.0768 -449.43C-200.371 -462.272 -298 -372.363 -298 -259.655C-298 -201.985 -272.4 -150.321 -231.983 -115.299L-119.649 -2.96462C-112.601 4.08375 -101.177 4.08375 -94.1262 -2.96462L19.6598 -116.751C25.3971 -121.839 30.8201 -127.259 35.9058 -132.994L36.8156 -133.901L36.7491 -133.97C70.4065 -172.432 88.9347 -224.47 82.8549 -280.836Z" fill="#D61D1D"/>
</svg>
