<svg width="212" height="129" viewBox="0 0 212 129" fill="none" xmlns="http://www.w3.org/2000/svg">
<rect width="212" height="129" fill="#E5E5E5"/>
<rect width="1920" height="2925" transform="translate(-398 -1598)" fill="white"/>
<rect width="1920" height="798" transform="translate(-398 -128)" fill="white"/>
<mask id="mask0" style="mask-type:alpha" maskUnits="userSpaceOnUse" x="-10" y="-23" width="290" height="152">
<path d="M87.7354 20.9505C28.9711 -2.87302 2.75935 2.7946 -8.93132 20.9505L-10 129H280V-23C241.843 -4.75824 144.617 44.0106 87.7354 20.9505Z" fill="#D61D1D"/>
</mask>
<g mask="url(#mask0)">
<rect width="212" height="130" fill="#D61D1D"/>
</g>
<path d="M82.8549 -280.836C73.3736 -368.762 2.81573 -439.642 -85.0768 -449.43C-200.371 -462.272 -298 -372.363 -298 -259.655C-298 -201.985 -272.4 -150.321 -231.983 -115.299L-119.649 -2.96462C-112.601 4.08375 -101.177 4.08375 -94.1262 -2.96462L19.6598 -116.751C25.3971 -121.839 30.8201 -127.259 35.9058 -132.994L36.8156 -133.901L36.7491 -133.97C70.4065 -172.432 88.9347 -224.47 82.8549 -280.836Z" fill="#D61D1D"/>
</svg>
